<mxfile host="app.diagrams.net" agent="Mozilla/5.0 (Windows NT 10.0; Win64; x64) AppleWebKit/537.36 (KHTML, like Gecko) Chrome/130.0.0.0 Safari/537.36" version="24.8.4">
  <diagram name="Page-1" id="fs2SqTxfVMasAFFmqLBA">
    <mxGraphModel dx="1450" dy="615" grid="0" gridSize="10" guides="1" tooltips="1" connect="1" arrows="1" fold="1" page="0" pageScale="1" pageWidth="850" pageHeight="1100" math="0" shadow="0">
      <root>
        <mxCell id="0" />
        <mxCell id="1" parent="0" />
        <mxCell id="uihA0G4v9TT-xtdiuK2H-1" value="" style="rounded=1;whiteSpace=wrap;html=1;fillColor=#e3c800;strokeColor=#B09500;fontColor=#000000;fontStyle=1;textShadow=1;" vertex="1" parent="1">
          <mxGeometry x="140" y="170" width="120" height="241" as="geometry" />
        </mxCell>
        <mxCell id="uihA0G4v9TT-xtdiuK2H-11" style="edgeStyle=none;curved=1;rounded=0;orthogonalLoop=1;jettySize=auto;html=1;exitX=1;exitY=0.5;exitDx=0;exitDy=0;fontSize=12;startSize=8;endSize=8;strokeColor=#66B2FF;fontColor=#660066;fontStyle=1;textShadow=1;" edge="1" parent="1" source="uihA0G4v9TT-xtdiuK2H-2" target="uihA0G4v9TT-xtdiuK2H-3">
          <mxGeometry relative="1" as="geometry" />
        </mxCell>
        <mxCell id="uihA0G4v9TT-xtdiuK2H-2" value="0" style="text;strokeColor=none;fillColor=none;html=1;align=center;verticalAlign=middle;whiteSpace=wrap;rounded=0;fontSize=16;fontColor=#660066;fontStyle=1;textShadow=1;" vertex="1" parent="1">
          <mxGeometry x="-4" y="188" width="60" height="30" as="geometry" />
        </mxCell>
        <mxCell id="uihA0G4v9TT-xtdiuK2H-3" value="0" style="text;strokeColor=none;fillColor=none;html=1;align=center;verticalAlign=middle;whiteSpace=wrap;rounded=0;fontSize=16;fontColor=#660066;fontStyle=1;textShadow=1;" vertex="1" parent="1">
          <mxGeometry x="330" y="181" width="60" height="30" as="geometry" />
        </mxCell>
        <mxCell id="uihA0G4v9TT-xtdiuK2H-4" value="1" style="text;strokeColor=none;fillColor=none;html=1;align=center;verticalAlign=middle;whiteSpace=wrap;rounded=0;fontSize=16;fontColor=#660066;fontStyle=1;textShadow=1;" vertex="1" parent="1">
          <mxGeometry x="330" y="227" width="60" height="30" as="geometry" />
        </mxCell>
        <mxCell id="uihA0G4v9TT-xtdiuK2H-5" value="2" style="text;strokeColor=none;fillColor=none;html=1;align=center;verticalAlign=middle;whiteSpace=wrap;rounded=0;fontSize=16;fontColor=#660066;fontStyle=1;textShadow=1;" vertex="1" parent="1">
          <mxGeometry x="330" y="278" width="60" height="30" as="geometry" />
        </mxCell>
        <mxCell id="uihA0G4v9TT-xtdiuK2H-6" value="3" style="text;strokeColor=none;fillColor=none;html=1;align=center;verticalAlign=middle;whiteSpace=wrap;rounded=0;fontSize=16;fontColor=#660066;fontStyle=1;textShadow=1;" vertex="1" parent="1">
          <mxGeometry x="330" y="324" width="60" height="30" as="geometry" />
        </mxCell>
        <mxCell id="uihA0G4v9TT-xtdiuK2H-7" value="4" style="text;strokeColor=none;fillColor=none;html=1;align=center;verticalAlign=middle;whiteSpace=wrap;rounded=0;fontSize=16;fontColor=#660066;fontStyle=1;textShadow=1;" vertex="1" parent="1">
          <mxGeometry x="330" y="370" width="60" height="30" as="geometry" />
        </mxCell>
        <mxCell id="uihA0G4v9TT-xtdiuK2H-12" style="edgeStyle=orthogonalEdgeStyle;rounded=0;orthogonalLoop=1;jettySize=auto;html=1;exitX=1;exitY=0.5;exitDx=0;exitDy=0;entryX=0;entryY=0.5;entryDx=0;entryDy=0;fontSize=12;startSize=8;endSize=8;strokeColor=#e81717;fontColor=#660066;fontStyle=1;textShadow=1;" edge="1" parent="1" source="uihA0G4v9TT-xtdiuK2H-8" target="uihA0G4v9TT-xtdiuK2H-5">
          <mxGeometry relative="1" as="geometry">
            <Array as="points">
              <mxPoint x="195" y="258" />
              <mxPoint x="195" y="293" />
            </Array>
          </mxGeometry>
        </mxCell>
        <mxCell id="uihA0G4v9TT-xtdiuK2H-8" value="1987" style="text;strokeColor=none;fillColor=none;html=1;align=center;verticalAlign=middle;whiteSpace=wrap;rounded=0;fontSize=16;fontColor=#660066;fontStyle=1;textShadow=1;" vertex="1" parent="1">
          <mxGeometry x="-1" y="243" width="60" height="30" as="geometry" />
        </mxCell>
        <mxCell id="uihA0G4v9TT-xtdiuK2H-14" style="edgeStyle=elbowEdgeStyle;rounded=0;orthogonalLoop=1;jettySize=auto;html=1;exitX=1;exitY=0.5;exitDx=0;exitDy=0;fontSize=12;startSize=8;endSize=8;strokeColor=#f71d1d;fontColor=#660066;fontStyle=1;textShadow=1;" edge="1" parent="1">
          <mxGeometry relative="1" as="geometry">
            <mxPoint x="329" y="293" as="targetPoint" />
            <mxPoint x="56" y="362" as="sourcePoint" />
            <Array as="points">
              <mxPoint x="199" y="315" />
            </Array>
          </mxGeometry>
        </mxCell>
        <mxCell id="uihA0G4v9TT-xtdiuK2H-15" style="edgeStyle=elbowEdgeStyle;rounded=0;orthogonalLoop=1;jettySize=auto;html=1;exitX=1;exitY=0.5;exitDx=0;exitDy=0;entryX=0;entryY=0.5;entryDx=0;entryDy=0;fontSize=12;startSize=8;endSize=8;strokeColor=#67AB9F;fontColor=#660066;fontStyle=1;textShadow=1;" edge="1" parent="1" source="uihA0G4v9TT-xtdiuK2H-9" target="uihA0G4v9TT-xtdiuK2H-7">
          <mxGeometry relative="1" as="geometry" />
        </mxCell>
        <mxCell id="uihA0G4v9TT-xtdiuK2H-9" value="24" style="text;strokeColor=none;fillColor=none;html=1;align=center;verticalAlign=middle;whiteSpace=wrap;rounded=0;fontSize=16;fontColor=#660066;fontStyle=1;textShadow=1;" vertex="1" parent="1">
          <mxGeometry x="1" y="298" width="60" height="30" as="geometry" />
        </mxCell>
        <mxCell id="uihA0G4v9TT-xtdiuK2H-10" value="2" style="text;strokeColor=none;fillColor=none;html=1;align=center;verticalAlign=middle;whiteSpace=wrap;rounded=0;fontSize=16;fontColor=#660066;fontStyle=1;textShadow=1;" vertex="1" parent="1">
          <mxGeometry x="3" y="350" width="60" height="30" as="geometry" />
        </mxCell>
        <mxCell id="uihA0G4v9TT-xtdiuK2H-16" value="Keys" style="text;strokeColor=none;fillColor=none;html=1;align=center;verticalAlign=middle;whiteSpace=wrap;rounded=0;fontSize=16;fontStyle=1;labelBorderColor=none;textShadow=1;" vertex="1" parent="1">
          <mxGeometry x="-4" y="110" width="60" height="30" as="geometry" />
        </mxCell>
        <mxCell id="uihA0G4v9TT-xtdiuK2H-17" value="Hash Function" style="text;strokeColor=none;fillColor=none;html=1;align=center;verticalAlign=middle;whiteSpace=wrap;rounded=0;fontSize=16;fontStyle=1;labelBorderColor=none;textShadow=1;" vertex="1" parent="1">
          <mxGeometry x="163" y="116" width="60" height="30" as="geometry" />
        </mxCell>
        <mxCell id="uihA0G4v9TT-xtdiuK2H-18" value="Buckets" style="text;strokeColor=none;fillColor=none;html=1;align=center;verticalAlign=middle;whiteSpace=wrap;rounded=0;fontSize=16;fontStyle=1;labelBorderColor=none;textShadow=1;" vertex="1" parent="1">
          <mxGeometry x="321" y="112" width="60" height="30" as="geometry" />
        </mxCell>
      </root>
    </mxGraphModel>
  </diagram>
</mxfile>
